<svg xmlns="http://www.w3.org/2000/svg" xmlns:xlink="http://www.w3.org/1999/xlink" id="Layer_1" x="0" y="0" version="1.1" viewBox="0 0 414.52 380.75" xml:space="preserve" style="enable-background:new 0 0 414.52 380.75"><style type="text/css">.st0{fill:#a30000}.st1{fill:#c00}.st2{fill:#820000}</style><g id="logo_x5F_openshift_copy_1_"><path d="M120.52,170.91l-66.48,24.17c0.71,10.67,2.49,21.33,5.33,31.64l63.28-23.11 C120.16,192.95,119.45,181.93,120.52,170.91 M414.52,97.32c-4.62-9.6-9.95-18.84-16.35-27.73l-66.48,24.17 c7.82,7.82,14.22,16.71,19.55,26.31C351.24,120.07,414.52,97.32,414.52,97.32z" class="st0"/><path d="M268.05,78.48c13.51,6.4,25.6,14.93,35.91,25.6l66.48-24.18C309.65-5.78,190.91-25.68,105.23,35.46 c-54.39,38.75-84.25,103.1-79.28,169.93l66.48-24.53c4.98-67.9,64.35-119.09,132.25-113.76C239.61,68.17,254.54,72.08,268.05,78.48 M63.28,224.95L0,248.06c5.69,23.11,16,45.15,29.86,64.35l66.12-23.82C79.28,271.16,67.9,249.12,63.28,224.95" class="st1"/><path d="M339.15,200.06c-1.07,14.93-4.98,29.15-11.02,42.66c-29.15,61.86-102.39,88.52-164.6,59.72 c-13.51-6.4-25.6-14.93-35.91-25.6l-66.48,24.17c18.84,26.66,44.44,47.99,73.95,61.86c95.28,44.44,208.68,3.2,253.12-92.08 c13.86-29.51,19.91-62.57,17.06-94.92C405.28,175.89,339.15,200.06,339.15,200.06z" class="st1"/><path d="M355.86,118.65l-63.28,23.11c11.73,21.33,17.42,45.5,15.64,69.68l66.48-24.17 C372.57,163.44,366.17,140.34,355.86,118.65" class="st1"/><path d="M120.16,184.06c0-4.62,0-8.89,0.36-13.51l-66.48,24.17c0.36,4.27,0.71,8.53,1.42,12.8 C55.46,207.53,120.16,184.06,120.16,184.06z M404.92,79.55c-2.13-3.56-4.27-6.75-6.75-9.95l-66.48,24.17 c2.84,2.84,5.69,6.04,8.18,9.6C339.86,103.36,404.92,79.55,404.92,79.55z" class="st2"/><path d="M61.15,301.38c4.98,7.11,10.67,14.22,17.06,20.62l72.17-26.31c-8.18-5.33-16-11.38-22.75-18.49 C127.63,277.21,61.15,301.38,61.15,301.38z M405.63,175.89l-66.48,24.17c-0.71,9.6-2.49,19.2-5.69,28.44l72.17-26.31 C406.34,193.31,406.34,184.42,405.63,175.89" class="st0"/></g></svg>