<?xml version="1.0" encoding="utf-8"?>
<!-- Generator: Adobe Illustrator 25.3.1, SVG Export Plug-In . SVG Version: 6.00 Build 0)  -->
<svg version="1.1" id="Artwork" xmlns="http://www.w3.org/2000/svg" xmlns:xlink="http://www.w3.org/1999/xlink" x="0px" y="0px"
	 viewBox="0 0 800 298.5" style="enable-background:new 0 0 800 298.5;" xml:space="preserve">
<style type="text/css">
	.st0{fill:#426AB3;}
</style>
<path id="IBM_" class="st0" d="M0,276.9h145.1v20.7H0V276.9z M0,258.1h145.1v-20.7H0V258.1z M41.4,218.5h62.2v-20.7H41.4V218.5z
	 M41.4,179h62.2v-20.7H41.4V179z M41.4,139.4h62.2v-20.7H41.4V139.4z M103.6,79.1H41.4v20.7h62.2V79.1z M0,60.3h145.1V39.6H0V60.3z
	 M0,20.7h145.1V0H0V20.7z M165.8,258.1h221.1c3.7-6.5,6.6-13.5,8.3-20.7H165.8V258.1z M369.6,158.2H207.2V179h179.7
	C382.3,171.1,376.5,164.1,369.6,158.2z M207.2,118.7v20.7h162.4c6.9-5.9,12.7-12.9,17.3-20.7H207.2z M386.9,39.6H165.8v20.7h229.4
	C393.5,53,390.6,46,386.9,39.6z M318.4,0H165.8v20.7h206C357.2,7.4,338.1,0,318.4,0z M207.2,99.8h62.2V79.1h-62.2V99.8z M327.8,99.8
	h66.9c1.8-6.8,2.8-13.7,2.8-20.7h-69.7V99.8z M207.2,218.5h62.2v-20.7h-62.2V218.5z M327.8,197.8v20.7h69.7c0-7-0.9-14-2.8-20.7
	H327.8z M165.8,297.7h152.6c19.8,0.1,38.8-7.3,53.4-20.7h-206V297.7z M580.2,297.7l7.2-20.7h-14.4L580.2,297.7z M566.5,258.1h27.6
	l7.3-20.7h-42.2L566.5,258.1z M552.6,218.5H608l7.3-20.7h-70L552.6,218.5z M538.7,179h83.2l7.3-20.7h-97.8L538.7,179z M455.9,99.8
	h112l-7.2-20.7H455.9V99.8z M606.4,60.3H746V39.6H613.6L606.4,60.3z M627.3,0l-7.2,20.7H746V0H627.3z M414.5,297.7h103.6v-20.7
	H414.5V297.7z M414.5,258.1h103.6v-20.7H414.5V258.1z M455.9,218.5h62.2v-20.7h-62.2V218.5z M455.9,179h62.2v-20.7h-62.2V179z
	 M704.6,79.1H599.8l-7.2,20.7h112V79.1z M642.4,139.4h62.2v-20.7H586.1l-5.8,16.7l-5.8-16.7H455.9v20.7h62.2v-19l6.7,19h111l6.7-19
	V139.4z M704.6,158.2h-62.2V179h62.2V158.2z M642.4,218.5h62.2v-20.7h-62.2V218.5z M642.4,258.1H746v-20.7H642.4V258.1z
	 M642.4,297.7H746v-20.7H642.4V297.7z M554.1,60.3l-7.2-20.7H414.5v20.7H554.1z M540.4,20.7L533.1,0H414.5v20.7H540.4z M768.3,282.2
	c0.3-8.7,7.6-15.6,16.3-15.4c8.7,0.3,15.6,7.6,15.4,16.3c-0.3,8.6-7.3,15.4-15.8,15.4c-8.8,0-15.8-7.2-15.8-16
	C768.4,282.4,768.4,282.3,768.3,282.2L768.3,282.2z M796.3,283.2v-2.1c-0.3-6.7-5.9-11.9-12.6-11.6c-6.3,0.2-11.4,5.3-11.6,11.6v2.1
	c0.3,6.7,5.9,11.9,12.6,11.6C790.9,294.6,796,289.5,796.3,283.2z M781.8,290.6h-4v-16.5h7.5c2.7-0.4,5.3,1.6,5.6,4.3
	c0,0.3,0.1,0.6,0,0.9c0.2,2.1-1,4.2-3,5l3.8,6.3h-4.4l-3.1-5.7h-2.4V290.6z M784.8,281.9c1.3,0,1.9-0.6,1.9-1.8V279
	c0-1.2-0.7-1.7-1.9-1.7h-3v4.7H784.8z"/>
</svg>
