<svg xmlns="http://www.w3.org/2000/svg" id="Artwork" viewBox="0 0 424.66 158.45"><defs><style>.cls-1{fill:#426ab3}</style></defs><path id="IBM_" d="M158,305h77v11H158Zm0-10h77V284H158Zm22-21h33V263H180Zm0-21h33V242H180Zm0-21h33V221H180Zm33-32H180v11h33Zm-55-10h77V179H158Zm0-21h77V158H158Zm88,126H363.37a41.76,41.76,0,0,0,4.42-11H246Zm108.18-53H268v11h95.36A42.45,42.45,0,0,0,354.18,242ZM268,221v11h86.18a42.45,42.45,0,0,0,9.18-11Zm95.37-42H246v11H367.79A41.76,41.76,0,0,0,363.37,179ZM327,158H246v11H355.33A41.84,41.84,0,0,0,327,158Zm-59,53h33V200H268Zm64,0h35.53A42,42,0,0,0,369,200H332Zm-64,63h33V263H268Zm64-11v11h37a42,42,0,0,0-1.47-11Zm-86,53h81a41.69,41.69,0,0,0,28.33-11H246Zm220,0,3.84-11h-7.64Zm-7.31-21h14.66l3.87-11H454.8Zm-7.38-21h29.42l3.86-11H447.43Zm-7.37-21h44.16l3.86-11H440.06ZM400,211h59.43l-3.82-11H400Zm79.87-21H554V179H483.7ZM491,158l-3.82,11H554V158ZM378,316h55V305H378Zm0-21h55V284H378Zm22-21h33V263H400Zm0-21h33V242H400Zm132-53H476.4l-3.83,11H532Zm-33,32h33V221H469.09L466,229.89,462.91,221H400v11h33V221.89L436.55,232h58.9L499,221.89Zm33,10H499v11h33Zm-33,32h33V263H499Zm0,21h55V284H499Zm0,21h55V305H499ZM452.13,190l-3.83-11H378v11Zm-7.3-21L441,158H378v11Zm121,138.79a8.41,8.41,0,1,1,8.4,8.66A8.43,8.43,0,0,1,565.85,307.79Zm14.83.55v-1.09a6.43,6.43,0,0,0-12.85,0v1.09a6.43,6.43,0,0,0,12.85,0ZM573,312.25h-2.14v-8.78h4a2.66,2.66,0,0,1,3,2.77,2.61,2.61,0,0,1-1.59,2.65l2,3.36h-2.35l-1.64-3H573Zm1.6-4.62c.67,0,1-.3,1-.93v-.63c0-.63-.38-.92-1-.92H573v2.48Z" class="cls-1" data-name="IBM®" transform="translate(-158 -158)"/></svg>