<svg viewBox="0 0 109 80" fill="none" xmlns="http://www.w3.org/2000/svg">
<path d="M100 36V47H109V44.7371H102.584V42.5217H108.41V40.3688H102.584V38.2469H108.764V36H100Z" fill="currentColor"/>
<path d="M92.6614 47C94.6251 47 96.0866 46.3475 97 45.071V40.5431H92.4032V42.4725H94.9447V44.1351C94.1229 44.7444 93.423 44.8627 92.6774 44.8627C90.1661 44.8627 89.3284 43.0072 89.3284 41.5226C89.3284 39.2513 90.653 38.123 92.6774 38.123C93.529 38.123 94.5191 38.4346 95.1734 39.0437L96.6495 37.6037C95.4321 36.3858 94.1229 36 92.6774 36C88.7659 36 87 38.5982 87 41.5226C87 44.2241 88.553 47 92.6614 47Z" fill="currentColor"/>
<path d="M75 36V47H79.5202C83.3786 47 85 44.2971 85 41.4214C85 38.546 83.3151 36 79.5202 36H75ZM77.425 38.216H79.5202C81.8193 38.216 82.5745 39.8028 82.5745 41.3903C82.5745 42.9767 81.913 44.7371 79.5202 44.7371H77.425V38.216Z" fill="currentColor"/>
<path d="M69 47H72V36H69V47Z" fill="currentColor"/>
<path d="M56 36V47H58.512V43.3853H60.3314L63.2135 47H66V46.8112L62.908 43.1657C65.0658 42.4118 65.5004 41.138 65.5168 39.7082C65.5168 37.7756 64.0672 36 61.346 36H56ZM58.512 38.1054H61.346C62.5214 38.1054 63.0206 39.017 63.0368 39.7709C63.0368 40.4628 62.5374 41.3118 61.3784 41.3118H58.512V38.1054Z" fill="currentColor"/>
<path d="M37.625 35.0001L32.2501 29.5001L26.8749 35.0001L21.4999 29.5001L16.1249 24L10.7499 29.5001L5.37497 35.0001L0 40.5L5.37497 46.0001L10.7499 51.5001L16.1249 46.0001L21.4999 51.5001L26.8749 57L32.2501 51.5001L37.625 46.0001L43 40.5L37.625 35.0001Z" fill="currentColor"/>
</svg>
