<svg width="72" height="72" viewBox="0 0 72 72" fill="none" xmlns="http://www.w3.org/2000/svg">
<circle cx="36" cy="36" r="36" fill="white"/>
<g clip-path="url(#clip0)">
<path d="M40.305 30.1597H41.2815L44.0634 27.351L44.2002 26.1593C39.024 21.5468 31.1223 22.0438 26.5537 27.2698C25.2835 28.7215 24.362 30.4482 23.8604 32.317C24.1702 32.1884 24.5136 32.168 24.8368 32.2574L30.3993 31.3311C30.3993 31.3311 30.6823 30.8585 30.8285 30.8883C33.3033 28.1446 37.4681 27.825 40.3251 30.1597H40.305Z" fill="#EA4335"/>
<path d="M48.0256 32.3172C47.3858 29.9405 46.074 27.8035 44.2485 26.1689L40.3452 30.1098C41.9937 31.4694 42.9326 33.5184 42.8924 35.6676V36.3677C44.8118 36.3677 46.3664 37.9386 46.3664 39.8752C46.3664 41.8131 44.8105 43.3827 42.8924 43.3827H35.943L35.2495 44.0923V48.2999L35.943 49H42.8924C46.8761 49.0312 50.4105 46.4243 51.5936 42.5837C52.7739 38.7417 51.3253 34.5706 48.0256 32.3172Z" fill="#4285F4"/>
<path d="M28.9839 48.9606H35.9333V43.3446H28.9839C28.4889 43.3446 27.9993 43.2376 27.5486 43.0291L26.5722 43.3338L23.7715 46.1424L23.5273 47.1283C25.098 48.3255 27.0148 48.9687 28.9839 48.9606Z" fill="#34A853"/>
<path d="M28.984 30.7408C25.1237 30.7638 21.7047 33.2597 20.4733 36.9527C19.242 40.6457 20.4693 44.7219 23.5289 47.0973L27.5596 43.0278C25.8105 42.2301 25.0338 40.1527 25.8239 38.3868C26.6139 36.6209 28.6715 35.8368 30.4206 36.6344C31.1905 36.9865 31.8075 37.6095 32.1563 38.3868L36.187 34.3173C34.4714 32.0544 31.8062 30.7313 28.984 30.7408Z" fill="#FBBC05"/>
</g>
<defs>
<clipPath id="clip0">
<rect width="32" height="26" fill="white" transform="translate(20 23)"/>
</clipPath>
</defs>
</svg>
